<?xml version="1.0" encoding="utf-8" standalone="no"?>
<!DOCTYPE svg PUBLIC "-//W3C//DTD SVG 1.1//EN"
  "http://www.w3.org/Graphics/SVG/1.1/DTD/svg11.dtd">
<svg xmlns:xlink="http://www.w3.org/1999/xlink" width="252pt" height="334.8pt" viewBox="0 0 252 334.8" xmlns="http://www.w3.org/2000/svg" version="1.1">
 <metadata>
  <rdf:RDF xmlns:dc="http://purl.org/dc/elements/1.1/" xmlns:cc="http://creativecommons.org/ns#" xmlns:rdf="http://www.w3.org/1999/02/22-rdf-syntax-ns#">
   <cc:Work>
    <dc:type rdf:resource="http://purl.org/dc/dcmitype/StillImage"/>
    <dc:date>2026-09-20T23:16:06.170903</dc:date>
    <dc:format>image/svg+xml</dc:format>
    <dc:creator>
     <cc:Agent>
      <dc:title>Matplotlib v3.11.1, https://matplotlib.org/</dc:title>
     </cc:Agent>
    </dc:creator>
   </cc:Work>
  </rdf:RDF>
 </metadata>
 <defs>
  <style type="text/css">*{stroke-linejoin: round; stroke-linecap: butt}</style>
 </defs>
 <g id="figure_1">
  <g id="patch_1">
   <path d="M 0 334.8 
L 252 334.8 
L 252 0 
L 0 0 
z
" style="fill: #ffffff"/>
  </g>
  <g id="axes_1">
   <g id="patch_2">
    <path d="M 89.336147 160.519706 
L 202.983853 160.519706 
L 202.983853 46.872 
L 89.336147 46.872 
z
" style="fill: #ffffff"/>
   </g>
   <g id="FillBetweenPolyCollection_1">
    <defs>
     <path id="m494d17e980" d="M 91.52168 -285.742467 
L 91.52168 -176.465826 
L 92.068063 -177.01221 
L 92.614446 -177.558593 
L 93.160829 -178.104976 
L 93.707212 -178.651359 
L 94.253596 -179.197742 
L 94.799979 -179.744126 
L 95.346362 -180.290509 
L 95.892745 -180.836892 
L 96.439128 -181.383275 
L 96.985512 -181.929658 
L 97.531895 -182.476042 
L 98.078278 -183.022425 
L 98.624661 -183.568808 
L 99.171044 -184.115191 
L 99.717428 -184.661574 
L 100.263811 -185.207958 
L 100.810194 -185.754341 
L 101.356577 -186.300724 
L 101.90296 -186.847107 
L 102.449344 -187.39349 
L 102.995727 -187.939874 
L 103.54211 -188.486257 
L 104.088493 -189.03264 
L 104.634876 -189.579023 
L 105.18126 -190.125406 
L 105.727643 -190.67179 
L 106.274026 -191.218173 
L 106.820409 -191.764556 
L 107.366793 -192.310939 
L 107.913176 -192.857323 
L 108.459559 -193.403706 
L 109.005942 -193.950089 
L 109.552325 -194.496472 
L 110.098709 -195.042855 
L 110.645092 -195.589239 
L 111.191475 -196.135622 
L 111.737858 -196.682005 
L 112.284241 -197.228388 
L 112.830625 -197.774771 
L 113.377008 -198.321155 
L 113.923391 -198.867538 
L 114.469774 -199.413921 
L 115.016157 -199.960304 
L 115.562541 -200.506687 
L 116.108924 -201.053071 
L 116.655307 -201.599454 
L 117.20169 -202.145837 
L 117.748073 -202.69222 
L 118.294457 -203.238603 
L 118.84084 -203.784987 
L 119.387223 -204.33137 
L 119.933606 -204.877753 
L 120.479989 -205.424136 
L 121.026373 -205.970519 
L 121.572756 -206.516903 
L 122.119139 -207.063286 
L 122.665522 -207.609669 
L 123.211905 -208.156052 
L 123.758289 -208.702435 
L 124.304672 -209.248819 
L 124.851055 -209.795202 
L 125.397438 -210.341585 
L 125.943821 -210.887968 
L 126.490205 -211.434351 
L 127.036588 -211.980735 
L 127.582971 -212.527118 
L 128.129354 -213.073501 
L 128.675737 -213.619884 
L 129.222121 -214.166267 
L 129.768504 -214.712651 
L 130.314887 -215.259034 
L 130.86127 -215.805417 
L 131.407653 -216.3518 
L 131.954037 -216.898183 
L 132.50042 -217.444567 
L 133.046803 -217.99095 
L 133.593186 -218.537333 
L 134.13957 -219.083716 
L 134.685953 -219.6301 
L 135.232336 -220.176483 
L 135.778719 -220.722866 
L 136.325102 -221.269249 
L 136.871486 -221.815632 
L 137.417869 -222.362016 
L 137.964252 -222.908399 
L 138.510635 -223.454782 
L 139.057018 -224.001165 
L 139.603402 -224.547548 
L 140.149785 -225.093932 
L 140.696168 -225.640315 
L 141.242551 -226.186698 
L 141.788934 -226.733081 
L 142.335318 -227.279464 
L 142.881701 -227.825848 
L 143.428084 -228.372231 
L 143.974467 -228.918614 
L 144.52085 -229.464997 
L 145.067234 -230.01138 
L 145.613617 -230.557764 
L 146.16 -231.104147 
L 146.706383 -231.65053 
L 147.252766 -232.196913 
L 147.79915 -232.743296 
L 148.345533 -233.28968 
L 148.891916 -233.836063 
L 149.438299 -234.382446 
L 149.984682 -234.928829 
L 150.531066 -235.475212 
L 151.077449 -236.021596 
L 151.623832 -236.567979 
L 152.170215 -237.114362 
L 152.716598 -237.660745 
L 153.262982 -238.207128 
L 153.809365 -238.753512 
L 154.355748 -239.299895 
L 154.902131 -239.846278 
L 155.448514 -240.392661 
L 155.994898 -240.939044 
L 156.541281 -241.485428 
L 157.087664 -242.031811 
L 157.634047 -242.578194 
L 158.18043 -243.124577 
L 158.726814 -243.67096 
L 159.273197 -244.217344 
L 159.81958 -244.763727 
L 160.365963 -245.31011 
L 160.912347 -245.856493 
L 161.45873 -246.402876 
L 162.005113 -246.94926 
L 162.551496 -247.495643 
L 163.097879 -248.042026 
L 163.644263 -248.588409 
L 164.190646 -249.134793 
L 164.737029 -249.681176 
L 165.283412 -250.227559 
L 165.829795 -250.773942 
L 166.376179 -251.320325 
L 166.922562 -251.866709 
L 167.468945 -252.413092 
L 168.015328 -252.959475 
L 168.561711 -253.505858 
L 169.108095 -254.052241 
L 169.654478 -254.598625 
L 170.200861 -255.145008 
L 170.747244 -255.691391 
L 171.293627 -256.237774 
L 171.840011 -256.784157 
L 172.386394 -257.330541 
L 172.932777 -257.876924 
L 173.47916 -258.423307 
L 174.025543 -258.96969 
L 174.571927 -259.516073 
L 175.11831 -260.062457 
L 175.664693 -260.60884 
L 176.211076 -261.155223 
L 176.757459 -261.701606 
L 177.303843 -262.247989 
L 177.850226 -262.794373 
L 178.396609 -263.340756 
L 178.942992 -263.887139 
L 179.489375 -264.433522 
L 180.035759 -264.979905 
L 180.582142 -265.526289 
L 181.128525 -266.072672 
L 181.674908 -266.619055 
L 182.221291 -267.165438 
L 182.767675 -267.711821 
L 183.314058 -268.258205 
L 183.860441 -268.804588 
L 184.406824 -269.350971 
L 184.953207 -269.897354 
L 185.499591 -270.443737 
L 186.045974 -270.990121 
L 186.592357 -271.536504 
L 187.13874 -272.082887 
L 187.685124 -272.62927 
L 188.231507 -273.175653 
L 188.77789 -273.722037 
L 189.324273 -274.26842 
L 189.870656 -274.814803 
L 190.41704 -275.361186 
L 190.963423 -275.90757 
L 191.509806 -276.453953 
L 192.056189 -277.000336 
L 192.602572 -277.546719 
L 193.148956 -278.093102 
L 193.695339 -278.639486 
L 194.241722 -279.185869 
L 194.788105 -279.732252 
L 195.334488 -280.278635 
L 195.880872 -280.825018 
L 196.427255 -281.371402 
L 196.973638 -281.917785 
L 197.520021 -282.464168 
L 198.066404 -283.010551 
L 198.612788 -283.556934 
L 199.159171 -284.103318 
L 199.705554 -284.649701 
L 200.251937 -285.196084 
L 200.79832 -285.742467 
L 200.79832 -285.742467 
L 200.79832 -285.742467 
L 200.251937 -285.742467 
L 199.705554 -285.742467 
L 199.159171 -285.742467 
L 198.612788 -285.742467 
L 198.066404 -285.742467 
L 197.520021 -285.742467 
L 196.973638 -285.742467 
L 196.427255 -285.742467 
L 195.880872 -285.742467 
L 195.334488 -285.742467 
L 194.788105 -285.742467 
L 194.241722 -285.742467 
L 193.695339 -285.742467 
L 193.148956 -285.742467 
L 192.602572 -285.742467 
L 192.056189 -285.742467 
L 191.509806 -285.742467 
L 190.963423 -285.742467 
L 190.41704 -285.742467 
L 189.870656 -285.742467 
L 189.324273 -285.742467 
L 188.77789 -285.742467 
L 188.231507 -285.742467 
L 187.685124 -285.742467 
L 187.13874 -285.742467 
L 186.592357 -285.742467 
L 186.045974 -285.742467 
L 185.499591 -285.742467 
L 184.953207 -285.742467 
L 184.406824 -285.742467 
L 183.860441 -285.742467 
L 183.314058 -285.742467 
L 182.767675 -285.742467 
L 182.221291 -285.742467 
L 181.674908 -285.742467 
L 181.128525 -285.742467 
L 180.582142 -285.742467 
L 180.035759 -285.742467 
L 179.489375 -285.742467 
L 178.942992 -285.742467 
L 178.396609 -285.742467 
L 177.850226 -285.742467 
L 177.303843 -285.742467 
L 176.757459 -285.742467 
L 176.211076 -285.742467 
L 175.664693 -285.742467 
L 175.11831 -285.742467 
L 174.571927 -285.742467 
L 174.025543 -285.742467 
L 173.47916 -285.742467 
L 172.932777 -285.742467 
L 172.386394 -285.742467 
L 171.840011 -285.742467 
L 171.293627 -285.742467 
L 170.747244 -285.742467 
L 170.200861 -285.742467 
L 169.654478 -285.742467 
L 169.108095 -285.742467 
L 168.561711 -285.742467 
L 168.015328 -285.742467 
L 167.468945 -285.742467 
L 166.922562 -285.742467 
L 166.376179 -285.742467 
L 165.829795 -285.742467 
L 165.283412 -285.742467 
L 164.737029 -285.742467 
L 164.190646 -285.742467 
L 163.644263 -285.742467 
L 163.097879 -285.742467 
L 162.551496 -285.742467 
L 162.005113 -285.742467 
L 161.45873 -285.742467 
L 160.912347 -285.742467 
L 160.365963 -285.742467 
L 159.81958 -285.742467 
L 159.273197 -285.742467 
L 158.726814 -285.742467 
L 158.18043 -285.742467 
L 157.634047 -285.742467 
L 157.087664 -285.742467 
L 156.541281 -285.742467 
L 155.994898 -285.742467 
L 155.448514 -285.742467 
L 154.902131 -285.742467 
L 154.355748 -285.742467 
L 153.809365 -285.742467 
L 153.262982 -285.742467 
L 152.716598 -285.742467 
L 152.170215 -285.742467 
L 151.623832 -285.742467 
L 151.077449 -285.742467 
L 150.531066 -285.742467 
L 149.984682 -285.742467 
L 149.438299 -285.742467 
L 148.891916 -285.742467 
L 148.345533 -285.742467 
L 147.79915 -285.742467 
L 147.252766 -285.742467 
L 146.706383 -285.742467 
L 146.16 -285.742467 
L 145.613617 -285.742467 
L 145.067234 -285.742467 
L 144.52085 -285.742467 
L 143.974467 -285.742467 
L 143.428084 -285.742467 
L 142.881701 -285.742467 
L 142.335318 -285.742467 
L 141.788934 -285.742467 
L 141.242551 -285.742467 
L 140.696168 -285.742467 
L 140.149785 -285.742467 
L 139.603402 -285.742467 
L 139.057018 -285.742467 
L 138.510635 -285.742467 
L 137.964252 -285.742467 
L 137.417869 -285.742467 
L 136.871486 -285.742467 
L 136.325102 -285.742467 
L 135.778719 -285.742467 
L 135.232336 -285.742467 
L 134.685953 -285.742467 
L 134.13957 -285.742467 
L 133.593186 -285.742467 
L 133.046803 -285.742467 
L 132.50042 -285.742467 
L 131.954037 -285.742467 
L 131.407653 -285.742467 
L 130.86127 -285.742467 
L 130.314887 -285.742467 
L 129.768504 -285.742467 
L 129.222121 -285.742467 
L 128.675737 -285.742467 
L 128.129354 -285.742467 
L 127.582971 -285.742467 
L 127.036588 -285.742467 
L 126.490205 -285.742467 
L 125.943821 -285.742467 
L 125.397438 -285.742467 
L 124.851055 -285.742467 
L 124.304672 -285.742467 
L 123.758289 -285.742467 
L 123.211905 -285.742467 
L 122.665522 -285.742467 
L 122.119139 -285.742467 
L 121.572756 -285.742467 
L 121.026373 -285.742467 
L 120.479989 -285.742467 
L 119.933606 -285.742467 
L 119.387223 -285.742467 
L 118.84084 -285.742467 
L 118.294457 -285.742467 
L 117.748073 -285.742467 
L 117.20169 -285.742467 
L 116.655307 -285.742467 
L 116.108924 -285.742467 
L 115.562541 -285.742467 
L 115.016157 -285.742467 
L 114.469774 -285.742467 
L 113.923391 -285.742467 
L 113.377008 -285.742467 
L 112.830625 -285.742467 
L 112.284241 -285.742467 
L 111.737858 -285.742467 
L 111.191475 -285.742467 
L 110.645092 -285.742467 
L 110.098709 -285.742467 
L 109.552325 -285.742467 
L 109.005942 -285.742467 
L 108.459559 -285.742467 
L 107.913176 -285.742467 
L 107.366793 -285.742467 
L 106.820409 -285.742467 
L 106.274026 -285.742467 
L 105.727643 -285.742467 
L 105.18126 -285.742467 
L 104.634876 -285.742467 
L 104.088493 -285.742467 
L 103.54211 -285.742467 
L 102.995727 -285.742467 
L 102.449344 -285.742467 
L 101.90296 -285.742467 
L 101.356577 -285.742467 
L 100.810194 -285.742467 
L 100.263811 -285.742467 
L 99.717428 -285.742467 
L 99.171044 -285.742467 
L 98.624661 -285.742467 
L 98.078278 -285.742467 
L 97.531895 -285.742467 
L 96.985512 -285.742467 
L 96.439128 -285.742467 
L 95.892745 -285.742467 
L 95.346362 -285.742467 
L 94.799979 -285.742467 
L 94.253596 -285.742467 
L 93.707212 -285.742467 
L 93.160829 -285.742467 
L 92.614446 -285.742467 
L 92.068063 -285.742467 
L 91.52168 -285.742467 
z
" style="stroke: #527f61; stroke-opacity: 0.055"/>
    </defs>
    <g clip-path="url(#pda8007db49)">
     <use xlink:href="#m494d17e980" x="0" y="334.8" style="fill: #527f61; fill-opacity: 0.055; stroke: #527f61; stroke-opacity: 0.055"/>
    </g>
   </g>
   <g id="FillBetweenPolyCollection_2">
    <defs>
     <path id="m40f048c798" d="M 91.52168 -176.465826 
L 91.52168 -176.465826 
L 92.068063 -176.465826 
L 92.614446 -176.465826 
L 93.160829 -176.465826 
L 93.707212 -176.465826 
L 94.253596 -176.465826 
L 94.799979 -176.465826 
L 95.346362 -176.465826 
L 95.892745 -176.465826 
L 96.439128 -176.465826 
L 96.985512 -176.465826 
L 97.531895 -176.465826 
L 98.078278 -176.465826 
L 98.624661 -176.465826 
L 99.171044 -176.465826 
L 99.717428 -176.465826 
L 100.263811 -176.465826 
L 100.810194 -176.465826 
L 101.356577 -176.465826 
L 101.90296 -176.465826 
L 102.449344 -176.465826 
L 102.995727 -176.465826 
L 103.54211 -176.465826 
L 104.088493 -176.465826 
L 104.634876 -176.465826 
L 105.18126 -176.465826 
L 105.727643 -176.465826 
L 106.274026 -176.465826 
L 106.820409 -176.465826 
L 107.366793 -176.465826 
L 107.913176 -176.465826 
L 108.459559 -176.465826 
L 109.005942 -176.465826 
L 109.552325 -176.465826 
L 110.098709 -176.465826 
L 110.645092 -176.465826 
L 111.191475 -176.465826 
L 111.737858 -176.465826 
L 112.284241 -176.465826 
L 112.830625 -176.465826 
L 113.377008 -176.465826 
L 113.923391 -176.465826 
L 114.469774 -176.465826 
L 115.016157 -176.465826 
L 115.562541 -176.465826 
L 116.108924 -176.465826 
L 116.655307 -176.465826 
L 117.20169 -176.465826 
L 117.748073 -176.465826 
L 118.294457 -176.465826 
L 118.84084 -176.465826 
L 119.387223 -176.465826 
L 119.933606 -176.465826 
L 120.479989 -176.465826 
L 121.026373 -176.465826 
L 121.572756 -176.465826 
L 122.119139 -176.465826 
L 122.665522 -176.465826 
L 123.211905 -176.465826 
L 123.758289 -176.465826 
L 124.304672 -176.465826 
L 124.851055 -176.465826 
L 125.397438 -176.465826 
L 125.943821 -176.465826 
L 126.490205 -176.465826 
L 127.036588 -176.465826 
L 127.582971 -176.465826 
L 128.129354 -176.465826 
L 128.675737 -176.465826 
L 129.222121 -176.465826 
L 129.768504 -176.465826 
L 130.314887 -176.465826 
L 130.86127 -176.465826 
L 131.407653 -176.465826 
L 131.954037 -176.465826 
L 132.50042 -176.465826 
L 133.046803 -176.465826 
L 133.593186 -176.465826 
L 134.13957 -176.465826 
L 134.685953 -176.465826 
L 135.232336 -176.465826 
L 135.778719 -176.465826 
L 136.325102 -176.465826 
L 136.871486 -176.465826 
L 137.417869 -176.465826 
L 137.964252 -176.465826 
L 138.510635 -176.465826 
L 139.057018 -176.465826 
L 139.603402 -176.465826 
L 140.149785 -176.465826 
L 140.696168 -176.465826 
L 141.242551 -176.465826 
L 141.788934 -176.465826 
L 142.335318 -176.465826 
L 142.881701 -176.465826 
L 143.428084 -176.465826 
L 143.974467 -176.465826 
L 144.52085 -176.465826 
L 145.067234 -176.465826 
L 145.613617 -176.465826 
L 146.16 -176.465826 
L 146.706383 -176.465826 
L 147.252766 -176.465826 
L 147.79915 -176.465826 
L 148.345533 -176.465826 
L 148.891916 -176.465826 
L 149.438299 -176.465826 
L 149.984682 -176.465826 
L 150.531066 -176.465826 
L 151.077449 -176.465826 
L 151.623832 -176.465826 
L 152.170215 -176.465826 
L 152.716598 -176.465826 
L 153.262982 -176.465826 
L 153.809365 -176.465826 
L 154.355748 -176.465826 
L 154.902131 -176.465826 
L 155.448514 -176.465826 
L 155.994898 -176.465826 
L 156.541281 -176.465826 
L 157.087664 -176.465826 
L 157.634047 -176.465826 
L 158.18043 -176.465826 
L 158.726814 -176.465826 
L 159.273197 -176.465826 
L 159.81958 -176.465826 
L 160.365963 -176.465826 
L 160.912347 -176.465826 
L 161.45873 -176.465826 
L 162.005113 -176.465826 
L 162.551496 -176.465826 
L 163.097879 -176.465826 
L 163.644263 -176.465826 
L 164.190646 -176.465826 
L 164.737029 -176.465826 
L 165.283412 -176.465826 
L 165.829795 -176.465826 
L 166.376179 -176.465826 
L 166.922562 -176.465826 
L 167.468945 -176.465826 
L 168.015328 -176.465826 
L 168.561711 -176.465826 
L 169.108095 -176.465826 
L 169.654478 -176.465826 
L 170.200861 -176.465826 
L 170.747244 -176.465826 
L 171.293627 -176.465826 
L 171.840011 -176.465826 
L 172.386394 -176.465826 
L 172.932777 -176.465826 
L 173.47916 -176.465826 
L 174.025543 -176.465826 
L 174.571927 -176.465826 
L 175.11831 -176.465826 
L 175.664693 -176.465826 
L 176.211076 -176.465826 
L 176.757459 -176.465826 
L 177.303843 -176.465826 
L 177.850226 -176.465826 
L 178.396609 -176.465826 
L 178.942992 -176.465826 
L 179.489375 -176.465826 
L 180.035759 -176.465826 
L 180.582142 -176.465826 
L 181.128525 -176.465826 
L 181.674908 -176.465826 
L 182.221291 -176.465826 
L 182.767675 -176.465826 
L 183.314058 -176.465826 
L 183.860441 -176.465826 
L 184.406824 -176.465826 
L 184.953207 -176.465826 
L 185.499591 -176.465826 
L 186.045974 -176.465826 
L 186.592357 -176.465826 
L 187.13874 -176.465826 
L 187.685124 -176.465826 
L 188.231507 -176.465826 
L 188.77789 -176.465826 
L 189.324273 -176.465826 
L 189.870656 -176.465826 
L 190.41704 -176.465826 
L 190.963423 -176.465826 
L 191.509806 -176.465826 
L 192.056189 -176.465826 
L 192.602572 -176.465826 
L 193.148956 -176.465826 
L 193.695339 -176.465826 
L 194.241722 -176.465826 
L 194.788105 -176.465826 
L 195.334488 -176.465826 
L 195.880872 -176.465826 
L 196.427255 -176.465826 
L 196.973638 -176.465826 
L 197.520021 -176.465826 
L 198.066404 -176.465826 
L 198.612788 -176.465826 
L 199.159171 -176.465826 
L 199.705554 -176.465826 
L 200.251937 -176.465826 
L 200.79832 -176.465826 
L 200.79832 -285.742467 
L 200.79832 -285.742467 
L 200.251937 -285.196084 
L 199.705554 -284.649701 
L 199.159171 -284.103318 
L 198.612788 -283.556934 
L 198.066404 -283.010551 
L 197.520021 -282.464168 
L 196.973638 -281.917785 
L 196.427255 -281.371402 
L 195.880872 -280.825018 
L 195.334488 -280.278635 
L 194.788105 -279.732252 
L 194.241722 -279.185869 
L 193.695339 -278.639486 
L 193.148956 -278.093102 
L 192.602572 -277.546719 
L 192.056189 -277.000336 
L 191.509806 -276.453953 
L 190.963423 -275.90757 
L 190.41704 -275.361186 
L 189.870656 -274.814803 
L 189.324273 -274.26842 
L 188.77789 -273.722037 
L 188.231507 -273.175653 
L 187.685124 -272.62927 
L 187.13874 -272.082887 
L 186.592357 -271.536504 
L 186.045974 -270.990121 
L 185.499591 -270.443737 
L 184.953207 -269.897354 
L 184.406824 -269.350971 
L 183.860441 -268.804588 
L 183.314058 -268.258205 
L 182.767675 -267.711821 
L 182.221291 -267.165438 
L 181.674908 -266.619055 
L 181.128525 -266.072672 
L 180.582142 -265.526289 
L 180.035759 -264.979905 
L 179.489375 -264.433522 
L 178.942992 -263.887139 
L 178.396609 -263.340756 
L 177.850226 -262.794373 
L 177.303843 -262.247989 
L 176.757459 -261.701606 
L 176.211076 -261.155223 
L 175.664693 -260.60884 
L 175.11831 -260.062457 
L 174.571927 -259.516073 
L 174.025543 -258.96969 
L 173.47916 -258.423307 
L 172.932777 -257.876924 
L 172.386394 -257.330541 
L 171.840011 -256.784157 
L 171.293627 -256.237774 
L 170.747244 -255.691391 
L 170.200861 -255.145008 
L 169.654478 -254.598625 
L 169.108095 -254.052241 
L 168.561711 -253.505858 
L 168.015328 -252.959475 
L 167.468945 -252.413092 
L 166.922562 -251.866709 
L 166.376179 -251.320325 
L 165.829795 -250.773942 
L 165.283412 -250.227559 
L 164.737029 -249.681176 
L 164.190646 -249.134793 
L 163.644263 -248.588409 
L 163.097879 -248.042026 
L 162.551496 -247.495643 
L 162.005113 -246.94926 
L 161.45873 -246.402876 
L 160.912347 -245.856493 
L 160.365963 -245.31011 
L 159.81958 -244.763727 
L 159.273197 -244.217344 
L 158.726814 -243.67096 
L 158.18043 -243.124577 
L 157.634047 -242.578194 
L 157.087664 -242.031811 
L 156.541281 -241.485428 
L 155.994898 -240.939044 
L 155.448514 -240.392661 
L 154.902131 -239.846278 
L 154.355748 -239.299895 
L 153.809365 -238.753512 
L 153.262982 -238.207128 
L 152.716598 -237.660745 
L 152.170215 -237.114362 
L 151.623832 -236.567979 
L 151.077449 -236.021596 
L 150.531066 -235.475212 
L 149.984682 -234.928829 
L 149.438299 -234.382446 
L 148.891916 -233.836063 
L 148.345533 -233.28968 
L 147.79915 -232.743296 
L 147.252766 -232.196913 
L 146.706383 -231.65053 
L 146.16 -231.104147 
L 145.613617 -230.557764 
L 145.067234 -230.01138 
L 144.52085 -229.464997 
L 143.974467 -228.918614 
L 143.428084 -228.372231 
L 142.881701 -227.825848 
L 142.335318 -227.279464 
L 141.788934 -226.733081 
L 141.242551 -226.186698 
L 140.696168 -225.640315 
L 140.149785 -225.093932 
L 139.603402 -224.547548 
L 139.057018 -224.001165 
L 138.510635 -223.454782 
L 137.964252 -222.908399 
L 137.417869 -222.362016 
L 136.871486 -221.815632 
L 136.325102 -221.269249 
L 135.778719 -220.722866 
L 135.232336 -220.176483 
L 134.685953 -219.6301 
L 134.13957 -219.083716 
L 133.593186 -218.537333 
L 133.046803 -217.99095 
L 132.50042 -217.444567 
L 131.954037 -216.898183 
L 131.407653 -216.3518 
L 130.86127 -215.805417 
L 130.314887 -215.259034 
L 129.768504 -214.712651 
L 129.222121 -214.166267 
L 128.675737 -213.619884 
L 128.129354 -213.073501 
L 127.582971 -212.527118 
L 127.036588 -211.980735 
L 126.490205 -211.434351 
L 125.943821 -210.887968 
L 125.397438 -210.341585 
L 124.851055 -209.795202 
L 124.304672 -209.248819 
L 123.758289 -208.702435 
L 123.211905 -208.156052 
L 122.665522 -207.609669 
L 122.119139 -207.063286 
L 121.572756 -206.516903 
L 121.026373 -205.970519 
L 120.479989 -205.424136 
L 119.933606 -204.877753 
L 119.387223 -204.33137 
L 118.84084 -203.784987 
L 118.294457 -203.238603 
L 117.748073 -202.69222 
L 117.20169 -202.145837 
L 116.655307 -201.599454 
L 116.108924 -201.053071 
L 115.562541 -200.506687 
L 115.016157 -199.960304 
L 114.469774 -199.413921 
L 113.923391 -198.867538 
L 113.377008 -198.321155 
L 112.830625 -197.774771 
L 112.284241 -197.228388 
L 111.737858 -196.682005 
L 111.191475 -196.135622 
L 110.645092 -195.589239 
L 110.098709 -195.042855 
L 109.552325 -194.496472 
L 109.005942 -193.950089 
L 108.459559 -193.403706 
L 107.913176 -192.857323 
L 107.366793 -192.310939 
L 106.820409 -191.764556 
L 106.274026 -191.218173 
L 105.727643 -190.67179 
L 105.18126 -190.125406 
L 104.634876 -189.579023 
L 104.088493 -189.03264 
L 103.54211 -188.486257 
L 102.995727 -187.939874 
L 102.449344 -187.39349 
L 101.90296 -186.847107 
L 101.356577 -186.300724 
L 100.810194 -185.754341 
L 100.263811 -185.207958 
L 99.717428 -184.661574 
L 99.171044 -184.115191 
L 98.624661 -183.568808 
L 98.078278 -183.022425 
L 97.531895 -182.476042 
L 96.985512 -181.929658 
L 96.439128 -181.383275 
L 95.892745 -180.836892 
L 95.346362 -180.290509 
L 94.799979 -179.744126 
L 94.253596 -179.197742 
L 93.707212 -178.651359 
L 93.160829 -178.104976 
L 92.614446 -177.558593 
L 92.068063 -177.01221 
L 91.52168 -176.465826 
z
" style="stroke: #c9693e; stroke-opacity: 0.045"/>
    </defs>
    <g clip-path="url(#pda8007db49)">
     <use xlink:href="#m40f048c798" x="0" y="334.8" style="fill: #c9693e; fill-opacity: 0.045; stroke: #c9693e; stroke-opacity: 0.045"/>
    </g>
   </g>
   <g id="line2d_1">
    <path d="M 91.52168 158.334174 
L 200.79832 49.057533 
" clip-path="url(#pda8007db49)" style="fill: none; stroke-dasharray: 2.96,1.28; stroke-dashoffset: 0; stroke: #6e747b; stroke-width: 0.8"/>
   </g>
   <g id="matplotlib.axis_1">
    <g id="xtick_1">
     <g id="line2d_2">
      <path d="M 91.52168 160.519706 
L 91.52168 46.872 
" clip-path="url(#pda8007db49)" style="fill: none; stroke: #d9dddf; stroke-width: 0.45; stroke-linecap: square"/>
     </g>
     <g id="line2d_3">
      <defs>
       <path id="m8b5f350f36" d="M 0 0 
L 0 3.5 
" style="stroke: #6e747b; stroke-width: 0.8"/>
      </defs>
      <g>
       <use xlink:href="#m8b5f350f36" x="91.52168" y="160.519706" style="fill: #6e747b; stroke: #6e747b; stroke-width: 0.8"/>
      </g>
     </g>
    </g>
    <g id="xtick_2">
     <g id="line2d_4">
      <path d="M 113.377008 160.519706 
L 113.377008 46.872 
" clip-path="url(#pda8007db49)" style="fill: none; stroke: #d9dddf; stroke-width: 0.45; stroke-linecap: square"/>
     </g>
     <g id="line2d_5">
      <g>
       <use xlink:href="#m8b5f350f36" x="113.377008" y="160.519706" style="fill: #6e747b; stroke: #6e747b; stroke-width: 0.8"/>
      </g>
     </g>
    </g>
    <g id="xtick_3">
     <g id="line2d_6">
      <path d="M 135.232336 160.519706 
L 135.232336 46.872 
" clip-path="url(#pda8007db49)" style="fill: none; stroke: #d9dddf; stroke-width: 0.45; stroke-linecap: square"/>
     </g>
     <g id="line2d_7">
      <g>
       <use xlink:href="#m8b5f350f36" x="135.232336" y="160.519706" style="fill: #6e747b; stroke: #6e747b; stroke-width: 0.8"/>
      </g>
     </g>
    </g>
    <g id="xtick_4">
     <g id="line2d_8">
      <path d="M 157.087664 160.519706 
L 157.087664 46.872 
" clip-path="url(#pda8007db49)" style="fill: none; stroke: #d9dddf; stroke-width: 0.45; stroke-linecap: square"/>
     </g>
     <g id="line2d_9">
      <g>
       <use xlink:href="#m8b5f350f36" x="157.087664" y="160.519706" style="fill: #6e747b; stroke: #6e747b; stroke-width: 0.8"/>
      </g>
     </g>
    </g>
    <g id="xtick_5">
     <g id="line2d_10">
      <path d="M 178.942992 160.519706 
L 178.942992 46.872 
" clip-path="url(#pda8007db49)" style="fill: none; stroke: #d9dddf; stroke-width: 0.45; stroke-linecap: square"/>
     </g>
     <g id="line2d_11">
      <g>
       <use xlink:href="#m8b5f350f36" x="178.942992" y="160.519706" style="fill: #6e747b; stroke: #6e747b; stroke-width: 0.8"/>
      </g>
     </g>
    </g>
    <g id="xtick_6">
     <g id="line2d_12">
      <path d="M 200.79832 160.519706 
L 200.79832 46.872 
" clip-path="url(#pda8007db49)" style="fill: none; stroke: #d9dddf; stroke-width: 0.45; stroke-linecap: square"/>
     </g>
     <g id="line2d_13">
      <g>
       <use xlink:href="#m8b5f350f36" x="200.79832" y="160.519706" style="fill: #6e747b; stroke: #6e747b; stroke-width: 0.8"/>
      </g>
     </g>
    </g>
   </g>
   <g id="matplotlib.axis_2">
    <g id="ytick_1">
     <g id="line2d_14">
      <path d="M 89.336147 158.334174 
L 202.983853 158.334174 
" clip-path="url(#pda8007db49)" style="fill: none; stroke: #d9dddf; stroke-width: 0.45; stroke-linecap: square"/>
     </g>
     <g id="line2d_15">
      <defs>
       <path id="m77a499a493" d="M 0 0 
L -3.5 0 
" style="stroke: #6e747b; stroke-width: 0.8"/>
      </defs>
      <g>
       <use xlink:href="#m77a499a493" x="89.336147" y="158.334174" style="fill: #6e747b; stroke: #6e747b; stroke-width: 0.8"/>
      </g>
     </g>
     <g id="text_1">
      <text style="font-size: 8.5px; font-family: 'Times New Roman', 'Times', 'DejaVu Serif', serif; text-anchor: end; fill: #6e747b" x="82.336147" y="161.280951" transform="rotate(-0 82.336147 161.280951)">0</text>
     </g>
    </g>
    <g id="ytick_2">
     <g id="line2d_16">
      <path d="M 89.336147 136.478845 
L 202.983853 136.478845 
" clip-path="url(#pda8007db49)" style="fill: none; stroke: #d9dddf; stroke-width: 0.45; stroke-linecap: square"/>
     </g>
     <g id="line2d_17">
      <g>
       <use xlink:href="#m77a499a493" x="89.336147" y="136.478845" style="fill: #6e747b; stroke: #6e747b; stroke-width: 0.8"/>
      </g>
     </g>
     <g id="text_2">
      <text style="font-size: 8.5px; font-family: 'Times New Roman', 'Times', 'DejaVu Serif', serif; text-anchor: end; fill: #6e747b" x="82.336147" y="139.425623" transform="rotate(-0 82.336147 139.425623)">20</text>
     </g>
    </g>
    <g id="ytick_3">
     <g id="line2d_18">
      <path d="M 89.336147 114.623517 
L 202.983853 114.623517 
" clip-path="url(#pda8007db49)" style="fill: none; stroke: #d9dddf; stroke-width: 0.45; stroke-linecap: square"/>
     </g>
     <g id="line2d_19">
      <g>
       <use xlink:href="#m77a499a493" x="89.336147" y="114.623517" style="fill: #6e747b; stroke: #6e747b; stroke-width: 0.8"/>
      </g>
     </g>
     <g id="text_3">
      <text style="font-size: 8.5px; font-family: 'Times New Roman', 'Times', 'DejaVu Serif', serif; text-anchor: end; fill: #6e747b" x="82.336147" y="117.570295" transform="rotate(-0 82.336147 117.570295)">40</text>
     </g>
    </g>
    <g id="ytick_4">
     <g id="line2d_20">
      <path d="M 89.336147 92.768189 
L 202.983853 92.768189 
" clip-path="url(#pda8007db49)" style="fill: none; stroke: #d9dddf; stroke-width: 0.45; stroke-linecap: square"/>
     </g>
     <g id="line2d_21">
      <g>
       <use xlink:href="#m77a499a493" x="89.336147" y="92.768189" style="fill: #6e747b; stroke: #6e747b; stroke-width: 0.8"/>
      </g>
     </g>
     <g id="text_4">
      <text style="font-size: 8.5px; font-family: 'Times New Roman', 'Times', 'DejaVu Serif', serif; text-anchor: end; fill: #6e747b" x="82.336147" y="95.714966" transform="rotate(-0 82.336147 95.714966)">60</text>
     </g>
    </g>
    <g id="ytick_5">
     <g id="line2d_22">
      <path d="M 89.336147 70.912861 
L 202.983853 70.912861 
" clip-path="url(#pda8007db49)" style="fill: none; stroke: #d9dddf; stroke-width: 0.45; stroke-linecap: square"/>
     </g>
     <g id="line2d_23">
      <g>
       <use xlink:href="#m77a499a493" x="89.336147" y="70.912861" style="fill: #6e747b; stroke: #6e747b; stroke-width: 0.8"/>
      </g>
     </g>
     <g id="text_5">
      <text style="font-size: 8.5px; font-family: 'Times New Roman', 'Times', 'DejaVu Serif', serif; text-anchor: end; fill: #6e747b" x="82.336147" y="73.859638" transform="rotate(-0 82.336147 73.859638)">80</text>
     </g>
    </g>
    <g id="ytick_6">
     <g id="line2d_24">
      <path d="M 89.336147 49.057533 
L 202.983853 49.057533 
" clip-path="url(#pda8007db49)" style="fill: none; stroke: #d9dddf; stroke-width: 0.45; stroke-linecap: square"/>
     </g>
     <g id="line2d_25">
      <g>
       <use xlink:href="#m77a499a493" x="89.336147" y="49.057533" style="fill: #6e747b; stroke: #6e747b; stroke-width: 0.8"/>
      </g>
     </g>
     <g id="text_6">
      <text style="font-size: 8.5px; font-family: 'Times New Roman', 'Times', 'DejaVu Serif', serif; text-anchor: end; fill: #6e747b" x="82.336147" y="52.00431" transform="rotate(-0 82.336147 52.00431)">100</text>
     </g>
    </g>
   </g>
   <g id="patch_3">
    <path d="M 89.336147 160.519706 
L 89.336147 46.872 
" style="fill: none; stroke: #000000; stroke-width: 0.7; stroke-linejoin: miter; stroke-linecap: square"/>
   </g>
   <g id="patch_4">
    <path d="M 89.336147 160.519706 
L 202.983853 160.519706 
" style="fill: none; stroke: #000000; stroke-width: 0.7; stroke-linejoin: miter; stroke-linecap: square"/>
   </g>
   <g id="PathCollection_1">
    <defs>
     <path id="md4b190f612" d="M -2.872281 2.872281 
L 2.872281 2.872281 
L 2.872281 -2.872281 
L -2.872281 -2.872281 
z
" style="stroke: #7651a1; stroke-width: 1.25"/>
    </defs>
    <g clip-path="url(#pda8007db49)">
     <use xlink:href="#md4b190f612" x="163.644263" y="49.057533" style="fill: #ffffff; stroke: #7651a1; stroke-width: 1.25"/>
     <use xlink:href="#md4b190f612" x="98.078278" y="62.17073" style="fill: #ffffff; stroke: #7651a1; stroke-width: 1.25"/>
     <use xlink:href="#md4b190f612" x="198.612788" y="66.541795" style="fill: #ffffff; stroke: #7651a1; stroke-width: 1.25"/>
     <use xlink:href="#md4b190f612" x="139.603402" y="108.066919" style="fill: #ffffff; stroke: #7651a1; stroke-width: 1.25"/>
     <use xlink:href="#md4b190f612" x="161.45873" y="77.469459" style="fill: #ffffff; stroke: #7651a1; stroke-width: 1.25"/>
     <use xlink:href="#md4b190f612" x="95.892745" y="156.148641" style="fill: #ffffff; stroke: #7651a1; stroke-width: 1.25"/>
     <use xlink:href="#md4b190f612" x="104.634876" y="156.148641" style="fill: #ffffff; stroke: #7651a1; stroke-width: 1.25"/>
     <use xlink:href="#md4b190f612" x="109.005942" y="121.180116" style="fill: #ffffff; stroke: #7651a1; stroke-width: 1.25"/>
     <use xlink:href="#md4b190f612" x="163.644263" y="49.057533" style="fill: #ffffff; stroke: #7651a1; stroke-width: 1.25"/>
     <use xlink:href="#md4b190f612" x="187.685124" y="49.057533" style="fill: #ffffff; stroke: #7651a1; stroke-width: 1.25"/>
    </g>
   </g>
   <g id="patch_5">
    <path d="M 190.318833 63.73836 
Q 193.520186 64.820448 196.721539 65.902535 
" style="fill: none; stroke: #6e747b; stroke-width: 0.45; stroke-linecap: round"/>
   </g>
   <g id="text_7">
    <text style="font-size: 7.6px; font-family: 'Times New Roman', 'Times', 'DejaVu Serif', serif; text-anchor: end; fill: #20252b" x="192.056189" y="59.618172" transform="rotate(-0 192.056189 59.618172)">drawer close</text>
   </g>
   <g id="patch_6">
    <path d="M 107.834781 154.621191 
Q 107.136364 154.954575 106.437948 155.287958 
" style="fill: none; stroke: #6e747b; stroke-width: 0.45; stroke-linecap: round"/>
   </g>
   <g id="text_8">
    <text style="font-size: 7.6px; font-family: 'Times New Roman', 'Times', 'DejaVu Serif', serif; text-anchor: start; fill: #20252b" x="111.191475" y="151.41055" transform="rotate(-0 111.191475 151.41055)">push</text>
   </g>
   <g id="patch_7">
    <path d="M 102.767193 150.539223 
Q 100.10368 152.712598 97.440167 154.885974 
" style="fill: none; stroke: #6e747b; stroke-width: 0.45; stroke-linecap: round"/>
   </g>
   <g id="text_9">
    <text style="font-size: 7.6px; font-family: 'Times New Roman', 'Times', 'DejaVu Serif', serif; text-anchor: start; fill: #20252b" x="94.799979" y="145.946718" transform="rotate(-0 94.799979 145.946718)">pick-place</text>
   </g>
   <g id="patch_8">
    <path d="M 103.342097 63.127652 
Q 101.693298 62.827913 100.044499 62.528174 
" style="fill: none; stroke: #6e747b; stroke-width: 0.45; stroke-linecap: round"/>
   </g>
   <g id="text_10">
    <text style="font-size: 7.6px; font-family: 'Times New Roman', 'Times', 'DejaVu Serif', serif; text-anchor: start; fill: #20252b" x="106.820409" y="68.360303" transform="rotate(-0 106.820409 68.360303)">door open</text>
   </g>
   <g id="text_11">
    <text style="font-weight: 700; font-size: 9.5px; font-family: 'Times New Roman', 'Times', 'DejaVu Serif', serif; text-anchor: start" x="89.336147" y="40.872" transform="rotate(-0 89.336147 40.872)">(a)  MT10 tasks</text>
   </g>
  </g>
  <g id="axes_2">
   <g id="patch_9">
    <path d="M 89.336147 294.624 
L 202.983853 294.624 
L 202.983853 180.976294 
L 89.336147 180.976294 
z
" style="fill: #ffffff"/>
   </g>
   <g id="FillBetweenPolyCollection_3">
    <defs>
     <path id="m02651fc726" d="M 91.52168 -151.638174 
L 91.52168 -42.361533 
L 92.068063 -42.907916 
L 92.614446 -43.454299 
L 93.160829 -44.000682 
L 93.707212 -44.547066 
L 94.253596 -45.093449 
L 94.799979 -45.639832 
L 95.346362 -46.186215 
L 95.892745 -46.732598 
L 96.439128 -47.278982 
L 96.985512 -47.825365 
L 97.531895 -48.371748 
L 98.078278 -48.918131 
L 98.624661 -49.464514 
L 99.171044 -50.010898 
L 99.717428 -50.557281 
L 100.263811 -51.103664 
L 100.810194 -51.650047 
L 101.356577 -52.19643 
L 101.90296 -52.742814 
L 102.449344 -53.289197 
L 102.995727 -53.83558 
L 103.54211 -54.381963 
L 104.088493 -54.928347 
L 104.634876 -55.47473 
L 105.18126 -56.021113 
L 105.727643 -56.567496 
L 106.274026 -57.113879 
L 106.820409 -57.660263 
L 107.366793 -58.206646 
L 107.913176 -58.753029 
L 108.459559 -59.299412 
L 109.005942 -59.845795 
L 109.552325 -60.392179 
L 110.098709 -60.938562 
L 110.645092 -61.484945 
L 111.191475 -62.031328 
L 111.737858 -62.577711 
L 112.284241 -63.124095 
L 112.830625 -63.670478 
L 113.377008 -64.216861 
L 113.923391 -64.763244 
L 114.469774 -65.309627 
L 115.016157 -65.856011 
L 115.562541 -66.402394 
L 116.108924 -66.948777 
L 116.655307 -67.49516 
L 117.20169 -68.041543 
L 117.748073 -68.587927 
L 118.294457 -69.13431 
L 118.84084 -69.680693 
L 119.387223 -70.227076 
L 119.933606 -70.773459 
L 120.479989 -71.319843 
L 121.026373 -71.866226 
L 121.572756 -72.412609 
L 122.119139 -72.958992 
L 122.665522 -73.505375 
L 123.211905 -74.051759 
L 123.758289 -74.598142 
L 124.304672 -75.144525 
L 124.851055 -75.690908 
L 125.397438 -76.237291 
L 125.943821 -76.783675 
L 126.490205 -77.330058 
L 127.036588 -77.876441 
L 127.582971 -78.422824 
L 128.129354 -78.969207 
L 128.675737 -79.515591 
L 129.222121 -80.061974 
L 129.768504 -80.608357 
L 130.314887 -81.15474 
L 130.86127 -81.701124 
L 131.407653 -82.247507 
L 131.954037 -82.79389 
L 132.50042 -83.340273 
L 133.046803 -83.886656 
L 133.593186 -84.43304 
L 134.13957 -84.979423 
L 134.685953 -85.525806 
L 135.232336 -86.072189 
L 135.778719 -86.618572 
L 136.325102 -87.164956 
L 136.871486 -87.711339 
L 137.417869 -88.257722 
L 137.964252 -88.804105 
L 138.510635 -89.350488 
L 139.057018 -89.896872 
L 139.603402 -90.443255 
L 140.149785 -90.989638 
L 140.696168 -91.536021 
L 141.242551 -92.082404 
L 141.788934 -92.628788 
L 142.335318 -93.175171 
L 142.881701 -93.721554 
L 143.428084 -94.267937 
L 143.974467 -94.81432 
L 144.52085 -95.360704 
L 145.067234 -95.907087 
L 145.613617 -96.45347 
L 146.16 -96.999853 
L 146.706383 -97.546236 
L 147.252766 -98.09262 
L 147.79915 -98.639003 
L 148.345533 -99.185386 
L 148.891916 -99.731769 
L 149.438299 -100.278152 
L 149.984682 -100.824536 
L 150.531066 -101.370919 
L 151.077449 -101.917302 
L 151.623832 -102.463685 
L 152.170215 -103.010068 
L 152.716598 -103.556452 
L 153.262982 -104.102835 
L 153.809365 -104.649218 
L 154.355748 -105.195601 
L 154.902131 -105.741984 
L 155.448514 -106.288368 
L 155.994898 -106.834751 
L 156.541281 -107.381134 
L 157.087664 -107.927517 
L 157.634047 -108.4739 
L 158.18043 -109.020284 
L 158.726814 -109.566667 
L 159.273197 -110.11305 
L 159.81958 -110.659433 
L 160.365963 -111.205817 
L 160.912347 -111.7522 
L 161.45873 -112.298583 
L 162.005113 -112.844966 
L 162.551496 -113.391349 
L 163.097879 -113.937733 
L 163.644263 -114.484116 
L 164.190646 -115.030499 
L 164.737029 -115.576882 
L 165.283412 -116.123265 
L 165.829795 -116.669649 
L 166.376179 -117.216032 
L 166.922562 -117.762415 
L 167.468945 -118.308798 
L 168.015328 -118.855181 
L 168.561711 -119.401565 
L 169.108095 -119.947948 
L 169.654478 -120.494331 
L 170.200861 -121.040714 
L 170.747244 -121.587097 
L 171.293627 -122.133481 
L 171.840011 -122.679864 
L 172.386394 -123.226247 
L 172.932777 -123.77263 
L 173.47916 -124.319013 
L 174.025543 -124.865397 
L 174.571927 -125.41178 
L 175.11831 -125.958163 
L 175.664693 -126.504546 
L 176.211076 -127.050929 
L 176.757459 -127.597313 
L 177.303843 -128.143696 
L 177.850226 -128.690079 
L 178.396609 -129.236462 
L 178.942992 -129.782845 
L 179.489375 -130.329229 
L 180.035759 -130.875612 
L 180.582142 -131.421995 
L 181.128525 -131.968378 
L 181.674908 -132.514761 
L 182.221291 -133.061145 
L 182.767675 -133.607528 
L 183.314058 -134.153911 
L 183.860441 -134.700294 
L 184.406824 -135.246677 
L 184.953207 -135.793061 
L 185.499591 -136.339444 
L 186.045974 -136.885827 
L 186.592357 -137.43221 
L 187.13874 -137.978594 
L 187.685124 -138.524977 
L 188.231507 -139.07136 
L 188.77789 -139.617743 
L 189.324273 -140.164126 
L 189.870656 -140.71051 
L 190.41704 -141.256893 
L 190.963423 -141.803276 
L 191.509806 -142.349659 
L 192.056189 -142.896042 
L 192.602572 -143.442426 
L 193.148956 -143.988809 
L 193.695339 -144.535192 
L 194.241722 -145.081575 
L 194.788105 -145.627958 
L 195.334488 -146.174342 
L 195.880872 -146.720725 
L 196.427255 -147.267108 
L 196.973638 -147.813491 
L 197.520021 -148.359874 
L 198.066404 -148.906258 
L 198.612788 -149.452641 
L 199.159171 -149.999024 
L 199.705554 -150.545407 
L 200.251937 -151.09179 
L 200.79832 -151.638174 
L 200.79832 -151.638174 
L 200.79832 -151.638174 
L 200.251937 -151.638174 
L 199.705554 -151.638174 
L 199.159171 -151.638174 
L 198.612788 -151.638174 
L 198.066404 -151.638174 
L 197.520021 -151.638174 
L 196.973638 -151.638174 
L 196.427255 -151.638174 
L 195.880872 -151.638174 
L 195.334488 -151.638174 
L 194.788105 -151.638174 
L 194.241722 -151.638174 
L 193.695339 -151.638174 
L 193.148956 -151.638174 
L 192.602572 -151.638174 
L 192.056189 -151.638174 
L 191.509806 -151.638174 
L 190.963423 -151.638174 
L 190.41704 -151.638174 
L 189.870656 -151.638174 
L 189.324273 -151.638174 
L 188.77789 -151.638174 
L 188.231507 -151.638174 
L 187.685124 -151.638174 
L 187.13874 -151.638174 
L 186.592357 -151.638174 
L 186.045974 -151.638174 
L 185.499591 -151.638174 
L 184.953207 -151.638174 
L 184.406824 -151.638174 
L 183.860441 -151.638174 
L 183.314058 -151.638174 
L 182.767675 -151.638174 
L 182.221291 -151.638174 
L 181.674908 -151.638174 
L 181.128525 -151.638174 
L 180.582142 -151.638174 
L 180.035759 -151.638174 
L 179.489375 -151.638174 
L 178.942992 -151.638174 
L 178.396609 -151.638174 
L 177.850226 -151.638174 
L 177.303843 -151.638174 
L 176.757459 -151.638174 
L 176.211076 -151.638174 
L 175.664693 -151.638174 
L 175.11831 -151.638174 
L 174.571927 -151.638174 
L 174.025543 -151.638174 
L 173.47916 -151.638174 
L 172.932777 -151.638174 
L 172.386394 -151.638174 
L 171.840011 -151.638174 
L 171.293627 -151.638174 
L 170.747244 -151.638174 
L 170.200861 -151.638174 
L 169.654478 -151.638174 
L 169.108095 -151.638174 
L 168.561711 -151.638174 
L 168.015328 -151.638174 
L 167.468945 -151.638174 
L 166.922562 -151.638174 
L 166.376179 -151.638174 
L 165.829795 -151.638174 
L 165.283412 -151.638174 
L 164.737029 -151.638174 
L 164.190646 -151.638174 
L 163.644263 -151.638174 
L 163.097879 -151.638174 
L 162.551496 -151.638174 
L 162.005113 -151.638174 
L 161.45873 -151.638174 
L 160.912347 -151.638174 
L 160.365963 -151.638174 
L 159.81958 -151.638174 
L 159.273197 -151.638174 
L 158.726814 -151.638174 
L 158.18043 -151.638174 
L 157.634047 -151.638174 
L 157.087664 -151.638174 
L 156.541281 -151.638174 
L 155.994898 -151.638174 
L 155.448514 -151.638174 
L 154.902131 -151.638174 
L 154.355748 -151.638174 
L 153.809365 -151.638174 
L 153.262982 -151.638174 
L 152.716598 -151.638174 
L 152.170215 -151.638174 
L 151.623832 -151.638174 
L 151.077449 -151.638174 
L 150.531066 -151.638174 
L 149.984682 -151.638174 
L 149.438299 -151.638174 
L 148.891916 -151.638174 
L 148.345533 -151.638174 
L 147.79915 -151.638174 
L 147.252766 -151.638174 
L 146.706383 -151.638174 
L 146.16 -151.638174 
L 145.613617 -151.638174 
L 145.067234 -151.638174 
L 144.52085 -151.638174 
L 143.974467 -151.638174 
L 143.428084 -151.638174 
L 142.881701 -151.638174 
L 142.335318 -151.638174 
L 141.788934 -151.638174 
L 141.242551 -151.638174 
L 140.696168 -151.638174 
L 140.149785 -151.638174 
L 139.603402 -151.638174 
L 139.057018 -151.638174 
L 138.510635 -151.638174 
L 137.964252 -151.638174 
L 137.417869 -151.638174 
L 136.871486 -151.638174 
L 136.325102 -151.638174 
L 135.778719 -151.638174 
L 135.232336 -151.638174 
L 134.685953 -151.638174 
L 134.13957 -151.638174 
L 133.593186 -151.638174 
L 133.046803 -151.638174 
L 132.50042 -151.638174 
L 131.954037 -151.638174 
L 131.407653 -151.638174 
L 130.86127 -151.638174 
L 130.314887 -151.638174 
L 129.768504 -151.638174 
L 129.222121 -151.638174 
L 128.675737 -151.638174 
L 128.129354 -151.638174 
L 127.582971 -151.638174 
L 127.036588 -151.638174 
L 126.490205 -151.638174 
L 125.943821 -151.638174 
L 125.397438 -151.638174 
L 124.851055 -151.638174 
L 124.304672 -151.638174 
L 123.758289 -151.638174 
L 123.211905 -151.638174 
L 122.665522 -151.638174 
L 122.119139 -151.638174 
L 121.572756 -151.638174 
L 121.026373 -151.638174 
L 120.479989 -151.638174 
L 119.933606 -151.638174 
L 119.387223 -151.638174 
L 118.84084 -151.638174 
L 118.294457 -151.638174 
L 117.748073 -151.638174 
L 117.20169 -151.638174 
L 116.655307 -151.638174 
L 116.108924 -151.638174 
L 115.562541 -151.638174 
L 115.016157 -151.638174 
L 114.469774 -151.638174 
L 113.923391 -151.638174 
L 113.377008 -151.638174 
L 112.830625 -151.638174 
L 112.284241 -151.638174 
L 111.737858 -151.638174 
L 111.191475 -151.638174 
L 110.645092 -151.638174 
L 110.098709 -151.638174 
L 109.552325 -151.638174 
L 109.005942 -151.638174 
L 108.459559 -151.638174 
L 107.913176 -151.638174 
L 107.366793 -151.638174 
L 106.820409 -151.638174 
L 106.274026 -151.638174 
L 105.727643 -151.638174 
L 105.18126 -151.638174 
L 104.634876 -151.638174 
L 104.088493 -151.638174 
L 103.54211 -151.638174 
L 102.995727 -151.638174 
L 102.449344 -151.638174 
L 101.90296 -151.638174 
L 101.356577 -151.638174 
L 100.810194 -151.638174 
L 100.263811 -151.638174 
L 99.717428 -151.638174 
L 99.171044 -151.638174 
L 98.624661 -151.638174 
L 98.078278 -151.638174 
L 97.531895 -151.638174 
L 96.985512 -151.638174 
L 96.439128 -151.638174 
L 95.892745 -151.638174 
L 95.346362 -151.638174 
L 94.799979 -151.638174 
L 94.253596 -151.638174 
L 93.707212 -151.638174 
L 93.160829 -151.638174 
L 92.614446 -151.638174 
L 92.068063 -151.638174 
L 91.52168 -151.638174 
z
" style="stroke: #527f61; stroke-opacity: 0.055"/>
    </defs>
    <g clip-path="url(#p7e88ca0c9c)">
     <use xlink:href="#m02651fc726" x="0" y="334.8" style="fill: #527f61; fill-opacity: 0.055; stroke: #527f61; stroke-opacity: 0.055"/>
    </g>
   </g>
   <g id="FillBetweenPolyCollection_4">
    <defs>
     <path id="m60d68525bd" d="M 91.52168 -42.361533 
L 91.52168 -42.361533 
L 92.068063 -42.361533 
L 92.614446 -42.361533 
L 93.160829 -42.361533 
L 93.707212 -42.361533 
L 94.253596 -42.361533 
L 94.799979 -42.361533 
L 95.346362 -42.361533 
L 95.892745 -42.361533 
L 96.439128 -42.361533 
L 96.985512 -42.361533 
L 97.531895 -42.361533 
L 98.078278 -42.361533 
L 98.624661 -42.361533 
L 99.171044 -42.361533 
L 99.717428 -42.361533 
L 100.263811 -42.361533 
L 100.810194 -42.361533 
L 101.356577 -42.361533 
L 101.90296 -42.361533 
L 102.449344 -42.361533 
L 102.995727 -42.361533 
L 103.54211 -42.361533 
L 104.088493 -42.361533 
L 104.634876 -42.361533 
L 105.18126 -42.361533 
L 105.727643 -42.361533 
L 106.274026 -42.361533 
L 106.820409 -42.361533 
L 107.366793 -42.361533 
L 107.913176 -42.361533 
L 108.459559 -42.361533 
L 109.005942 -42.361533 
L 109.552325 -42.361533 
L 110.098709 -42.361533 
L 110.645092 -42.361533 
L 111.191475 -42.361533 
L 111.737858 -42.361533 
L 112.284241 -42.361533 
L 112.830625 -42.361533 
L 113.377008 -42.361533 
L 113.923391 -42.361533 
L 114.469774 -42.361533 
L 115.016157 -42.361533 
L 115.562541 -42.361533 
L 116.108924 -42.361533 
L 116.655307 -42.361533 
L 117.20169 -42.361533 
L 117.748073 -42.361533 
L 118.294457 -42.361533 
L 118.84084 -42.361533 
L 119.387223 -42.361533 
L 119.933606 -42.361533 
L 120.479989 -42.361533 
L 121.026373 -42.361533 
L 121.572756 -42.361533 
L 122.119139 -42.361533 
L 122.665522 -42.361533 
L 123.211905 -42.361533 
L 123.758289 -42.361533 
L 124.304672 -42.361533 
L 124.851055 -42.361533 
L 125.397438 -42.361533 
L 125.943821 -42.361533 
L 126.490205 -42.361533 
L 127.036588 -42.361533 
L 127.582971 -42.361533 
L 128.129354 -42.361533 
L 128.675737 -42.361533 
L 129.222121 -42.361533 
L 129.768504 -42.361533 
L 130.314887 -42.361533 
L 130.86127 -42.361533 
L 131.407653 -42.361533 
L 131.954037 -42.361533 
L 132.50042 -42.361533 
L 133.046803 -42.361533 
L 133.593186 -42.361533 
L 134.13957 -42.361533 
L 134.685953 -42.361533 
L 135.232336 -42.361533 
L 135.778719 -42.361533 
L 136.325102 -42.361533 
L 136.871486 -42.361533 
L 137.417869 -42.361533 
L 137.964252 -42.361533 
L 138.510635 -42.361533 
L 139.057018 -42.361533 
L 139.603402 -42.361533 
L 140.149785 -42.361533 
L 140.696168 -42.361533 
L 141.242551 -42.361533 
L 141.788934 -42.361533 
L 142.335318 -42.361533 
L 142.881701 -42.361533 
L 143.428084 -42.361533 
L 143.974467 -42.361533 
L 144.52085 -42.361533 
L 145.067234 -42.361533 
L 145.613617 -42.361533 
L 146.16 -42.361533 
L 146.706383 -42.361533 
L 147.252766 -42.361533 
L 147.79915 -42.361533 
L 148.345533 -42.361533 
L 148.891916 -42.361533 
L 149.438299 -42.361533 
L 149.984682 -42.361533 
L 150.531066 -42.361533 
L 151.077449 -42.361533 
L 151.623832 -42.361533 
L 152.170215 -42.361533 
L 152.716598 -42.361533 
L 153.262982 -42.361533 
L 153.809365 -42.361533 
L 154.355748 -42.361533 
L 154.902131 -42.361533 
L 155.448514 -42.361533 
L 155.994898 -42.361533 
L 156.541281 -42.361533 
L 157.087664 -42.361533 
L 157.634047 -42.361533 
L 158.18043 -42.361533 
L 158.726814 -42.361533 
L 159.273197 -42.361533 
L 159.81958 -42.361533 
L 160.365963 -42.361533 
L 160.912347 -42.361533 
L 161.45873 -42.361533 
L 162.005113 -42.361533 
L 162.551496 -42.361533 
L 163.097879 -42.361533 
L 163.644263 -42.361533 
L 164.190646 -42.361533 
L 164.737029 -42.361533 
L 165.283412 -42.361533 
L 165.829795 -42.361533 
L 166.376179 -42.361533 
L 166.922562 -42.361533 
L 167.468945 -42.361533 
L 168.015328 -42.361533 
L 168.561711 -42.361533 
L 169.108095 -42.361533 
L 169.654478 -42.361533 
L 170.200861 -42.361533 
L 170.747244 -42.361533 
L 171.293627 -42.361533 
L 171.840011 -42.361533 
L 172.386394 -42.361533 
L 172.932777 -42.361533 
L 173.47916 -42.361533 
L 174.025543 -42.361533 
L 174.571927 -42.361533 
L 175.11831 -42.361533 
L 175.664693 -42.361533 
L 176.211076 -42.361533 
L 176.757459 -42.361533 
L 177.303843 -42.361533 
L 177.850226 -42.361533 
L 178.396609 -42.361533 
L 178.942992 -42.361533 
L 179.489375 -42.361533 
L 180.035759 -42.361533 
L 180.582142 -42.361533 
L 181.128525 -42.361533 
L 181.674908 -42.361533 
L 182.221291 -42.361533 
L 182.767675 -42.361533 
L 183.314058 -42.361533 
L 183.860441 -42.361533 
L 184.406824 -42.361533 
L 184.953207 -42.361533 
L 185.499591 -42.361533 
L 186.045974 -42.361533 
L 186.592357 -42.361533 
L 187.13874 -42.361533 
L 187.685124 -42.361533 
L 188.231507 -42.361533 
L 188.77789 -42.361533 
L 189.324273 -42.361533 
L 189.870656 -42.361533 
L 190.41704 -42.361533 
L 190.963423 -42.361533 
L 191.509806 -42.361533 
L 192.056189 -42.361533 
L 192.602572 -42.361533 
L 193.148956 -42.361533 
L 193.695339 -42.361533 
L 194.241722 -42.361533 
L 194.788105 -42.361533 
L 195.334488 -42.361533 
L 195.880872 -42.361533 
L 196.427255 -42.361533 
L 196.973638 -42.361533 
L 197.520021 -42.361533 
L 198.066404 -42.361533 
L 198.612788 -42.361533 
L 199.159171 -42.361533 
L 199.705554 -42.361533 
L 200.251937 -42.361533 
L 200.79832 -42.361533 
L 200.79832 -151.638174 
L 200.79832 -151.638174 
L 200.251937 -151.09179 
L 199.705554 -150.545407 
L 199.159171 -149.999024 
L 198.612788 -149.452641 
L 198.066404 -148.906258 
L 197.520021 -148.359874 
L 196.973638 -147.813491 
L 196.427255 -147.267108 
L 195.880872 -146.720725 
L 195.334488 -146.174342 
L 194.788105 -145.627958 
L 194.241722 -145.081575 
L 193.695339 -144.535192 
L 193.148956 -143.988809 
L 192.602572 -143.442426 
L 192.056189 -142.896042 
L 191.509806 -142.349659 
L 190.963423 -141.803276 
L 190.41704 -141.256893 
L 189.870656 -140.71051 
L 189.324273 -140.164126 
L 188.77789 -139.617743 
L 188.231507 -139.07136 
L 187.685124 -138.524977 
L 187.13874 -137.978594 
L 186.592357 -137.43221 
L 186.045974 -136.885827 
L 185.499591 -136.339444 
L 184.953207 -135.793061 
L 184.406824 -135.246677 
L 183.860441 -134.700294 
L 183.314058 -134.153911 
L 182.767675 -133.607528 
L 182.221291 -133.061145 
L 181.674908 -132.514761 
L 181.128525 -131.968378 
L 180.582142 -131.421995 
L 180.035759 -130.875612 
L 179.489375 -130.329229 
L 178.942992 -129.782845 
L 178.396609 -129.236462 
L 177.850226 -128.690079 
L 177.303843 -128.143696 
L 176.757459 -127.597313 
L 176.211076 -127.050929 
L 175.664693 -126.504546 
L 175.11831 -125.958163 
L 174.571927 -125.41178 
L 174.025543 -124.865397 
L 173.47916 -124.319013 
L 172.932777 -123.77263 
L 172.386394 -123.226247 
L 171.840011 -122.679864 
L 171.293627 -122.133481 
L 170.747244 -121.587097 
L 170.200861 -121.040714 
L 169.654478 -120.494331 
L 169.108095 -119.947948 
L 168.561711 -119.401565 
L 168.015328 -118.855181 
L 167.468945 -118.308798 
L 166.922562 -117.762415 
L 166.376179 -117.216032 
L 165.829795 -116.669649 
L 165.283412 -116.123265 
L 164.737029 -115.576882 
L 164.190646 -115.030499 
L 163.644263 -114.484116 
L 163.097879 -113.937733 
L 162.551496 -113.391349 
L 162.005113 -112.844966 
L 161.45873 -112.298583 
L 160.912347 -111.7522 
L 160.365963 -111.205817 
L 159.81958 -110.659433 
L 159.273197 -110.11305 
L 158.726814 -109.566667 
L 158.18043 -109.020284 
L 157.634047 -108.4739 
L 157.087664 -107.927517 
L 156.541281 -107.381134 
L 155.994898 -106.834751 
L 155.448514 -106.288368 
L 154.902131 -105.741984 
L 154.355748 -105.195601 
L 153.809365 -104.649218 
L 153.262982 -104.102835 
L 152.716598 -103.556452 
L 152.170215 -103.010068 
L 151.623832 -102.463685 
L 151.077449 -101.917302 
L 150.531066 -101.370919 
L 149.984682 -100.824536 
L 149.438299 -100.278152 
L 148.891916 -99.731769 
L 148.345533 -99.185386 
L 147.79915 -98.639003 
L 147.252766 -98.09262 
L 146.706383 -97.546236 
L 146.16 -96.999853 
L 145.613617 -96.45347 
L 145.067234 -95.907087 
L 144.52085 -95.360704 
L 143.974467 -94.81432 
L 143.428084 -94.267937 
L 142.881701 -93.721554 
L 142.335318 -93.175171 
L 141.788934 -92.628788 
L 141.242551 -92.082404 
L 140.696168 -91.536021 
L 140.149785 -90.989638 
L 139.603402 -90.443255 
L 139.057018 -89.896872 
L 138.510635 -89.350488 
L 137.964252 -88.804105 
L 137.417869 -88.257722 
L 136.871486 -87.711339 
L 136.325102 -87.164956 
L 135.778719 -86.618572 
L 135.232336 -86.072189 
L 134.685953 -85.525806 
L 134.13957 -84.979423 
L 133.593186 -84.43304 
L 133.046803 -83.886656 
L 132.50042 -83.340273 
L 131.954037 -82.79389 
L 131.407653 -82.247507 
L 130.86127 -81.701124 
L 130.314887 -81.15474 
L 129.768504 -80.608357 
L 129.222121 -80.061974 
L 128.675737 -79.515591 
L 128.129354 -78.969207 
L 127.582971 -78.422824 
L 127.036588 -77.876441 
L 126.490205 -77.330058 
L 125.943821 -76.783675 
L 125.397438 -76.237291 
L 124.851055 -75.690908 
L 124.304672 -75.144525 
L 123.758289 -74.598142 
L 123.211905 -74.051759 
L 122.665522 -73.505375 
L 122.119139 -72.958992 
L 121.572756 -72.412609 
L 121.026373 -71.866226 
L 120.479989 -71.319843 
L 119.933606 -70.773459 
L 119.387223 -70.227076 
L 118.84084 -69.680693 
L 118.294457 -69.13431 
L 117.748073 -68.587927 
L 117.20169 -68.041543 
L 116.655307 -67.49516 
L 116.108924 -66.948777 
L 115.562541 -66.402394 
L 115.016157 -65.856011 
L 114.469774 -65.309627 
L 113.923391 -64.763244 
L 113.377008 -64.216861 
L 112.830625 -63.670478 
L 112.284241 -63.124095 
L 111.737858 -62.577711 
L 111.191475 -62.031328 
L 110.645092 -61.484945 
L 110.098709 -60.938562 
L 109.552325 -60.392179 
L 109.005942 -59.845795 
L 108.459559 -59.299412 
L 107.913176 -58.753029 
L 107.366793 -58.206646 
L 106.820409 -57.660263 
L 106.274026 -57.113879 
L 105.727643 -56.567496 
L 105.18126 -56.021113 
L 104.634876 -55.47473 
L 104.088493 -54.928347 
L 103.54211 -54.381963 
L 102.995727 -53.83558 
L 102.449344 -53.289197 
L 101.90296 -52.742814 
L 101.356577 -52.19643 
L 100.810194 -51.650047 
L 100.263811 -51.103664 
L 99.717428 -50.557281 
L 99.171044 -50.010898 
L 98.624661 -49.464514 
L 98.078278 -48.918131 
L 97.531895 -48.371748 
L 96.985512 -47.825365 
L 96.439128 -47.278982 
L 95.892745 -46.732598 
L 95.346362 -46.186215 
L 94.799979 -45.639832 
L 94.253596 -45.093449 
L 93.707212 -44.547066 
L 93.160829 -44.000682 
L 92.614446 -43.454299 
L 92.068063 -42.907916 
L 91.52168 -42.361533 
z
" style="stroke: #c9693e; stroke-opacity: 0.045"/>
    </defs>
    <g clip-path="url(#p7e88ca0c9c)">
     <use xlink:href="#m60d68525bd" x="0" y="334.8" style="fill: #c9693e; fill-opacity: 0.045; stroke: #c9693e; stroke-opacity: 0.045"/>
    </g>
   </g>
   <g id="line2d_26">
    <path d="M 91.52168 292.438467 
L 200.79832 183.161826 
" clip-path="url(#p7e88ca0c9c)" style="fill: none; stroke-dasharray: 2.96,1.28; stroke-dashoffset: 0; stroke: #6e747b; stroke-width: 0.8"/>
   </g>
   <g id="matplotlib.axis_3">
    <g id="xtick_7">
     <g id="line2d_27">
      <path d="M 91.52168 294.624 
L 91.52168 180.976294 
" clip-path="url(#p7e88ca0c9c)" style="fill: none; stroke: #d9dddf; stroke-width: 0.45; stroke-linecap: square"/>
     </g>
     <g id="line2d_28">
      <g>
       <use xlink:href="#m8b5f350f36" x="91.52168" y="294.624" style="fill: #6e747b; stroke: #6e747b; stroke-width: 0.8"/>
      </g>
     </g>
     <g id="text_12">
      <text style="font-size: 8.5px; font-family: 'Times New Roman', 'Times', 'DejaVu Serif', serif; text-anchor: middle; fill: #6e747b" x="91.52168" y="307.517555" transform="rotate(-0 91.52168 307.517555)">0</text>
     </g>
    </g>
    <g id="xtick_8">
     <g id="line2d_29">
      <path d="M 113.377008 294.624 
L 113.377008 180.976294 
" clip-path="url(#p7e88ca0c9c)" style="fill: none; stroke: #d9dddf; stroke-width: 0.45; stroke-linecap: square"/>
     </g>
     <g id="line2d_30">
      <g>
       <use xlink:href="#m8b5f350f36" x="113.377008" y="294.624" style="fill: #6e747b; stroke: #6e747b; stroke-width: 0.8"/>
      </g>
     </g>
     <g id="text_13">
      <text style="font-size: 8.5px; font-family: 'Times New Roman', 'Times', 'DejaVu Serif', serif; text-anchor: middle; fill: #6e747b" x="113.377008" y="307.517555" transform="rotate(-0 113.377008 307.517555)">20</text>
     </g>
    </g>
    <g id="xtick_9">
     <g id="line2d_31">
      <path d="M 135.232336 294.624 
L 135.232336 180.976294 
" clip-path="url(#p7e88ca0c9c)" style="fill: none; stroke: #d9dddf; stroke-width: 0.45; stroke-linecap: square"/>
     </g>
     <g id="line2d_32">
      <g>
       <use xlink:href="#m8b5f350f36" x="135.232336" y="294.624" style="fill: #6e747b; stroke: #6e747b; stroke-width: 0.8"/>
      </g>
     </g>
     <g id="text_14">
      <text style="font-size: 8.5px; font-family: 'Times New Roman', 'Times', 'DejaVu Serif', serif; text-anchor: middle; fill: #6e747b" x="135.232336" y="307.517555" transform="rotate(-0 135.232336 307.517555)">40</text>
     </g>
    </g>
    <g id="xtick_10">
     <g id="line2d_33">
      <path d="M 157.087664 294.624 
L 157.087664 180.976294 
" clip-path="url(#p7e88ca0c9c)" style="fill: none; stroke: #d9dddf; stroke-width: 0.45; stroke-linecap: square"/>
     </g>
     <g id="line2d_34">
      <g>
       <use xlink:href="#m8b5f350f36" x="157.087664" y="294.624" style="fill: #6e747b; stroke: #6e747b; stroke-width: 0.8"/>
      </g>
     </g>
     <g id="text_15">
      <text style="font-size: 8.5px; font-family: 'Times New Roman', 'Times', 'DejaVu Serif', serif; text-anchor: middle; fill: #6e747b" x="157.087664" y="307.517555" transform="rotate(-0 157.087664 307.517555)">60</text>
     </g>
    </g>
    <g id="xtick_11">
     <g id="line2d_35">
      <path d="M 178.942992 294.624 
L 178.942992 180.976294 
" clip-path="url(#p7e88ca0c9c)" style="fill: none; stroke: #d9dddf; stroke-width: 0.45; stroke-linecap: square"/>
     </g>
     <g id="line2d_36">
      <g>
       <use xlink:href="#m8b5f350f36" x="178.942992" y="294.624" style="fill: #6e747b; stroke: #6e747b; stroke-width: 0.8"/>
      </g>
     </g>
     <g id="text_16">
      <text style="font-size: 8.5px; font-family: 'Times New Roman', 'Times', 'DejaVu Serif', serif; text-anchor: middle; fill: #6e747b" x="178.942992" y="307.517555" transform="rotate(-0 178.942992 307.517555)">80</text>
     </g>
    </g>
    <g id="xtick_12">
     <g id="line2d_37">
      <path d="M 200.79832 294.624 
L 200.79832 180.976294 
" clip-path="url(#p7e88ca0c9c)" style="fill: none; stroke: #d9dddf; stroke-width: 0.45; stroke-linecap: square"/>
     </g>
     <g id="line2d_38">
      <g>
       <use xlink:href="#m8b5f350f36" x="200.79832" y="294.624" style="fill: #6e747b; stroke: #6e747b; stroke-width: 0.8"/>
      </g>
     </g>
     <g id="text_17">
      <text style="font-size: 8.5px; font-family: 'Times New Roman', 'Times', 'DejaVu Serif', serif; text-anchor: middle; fill: #6e747b" x="200.79832" y="307.517555" transform="rotate(-0 200.79832 307.517555)">100</text>
     </g>
    </g>
   </g>
   <g id="matplotlib.axis_4">
    <g id="ytick_7">
     <g id="line2d_39">
      <path d="M 89.336147 292.438467 
L 202.983853 292.438467 
" clip-path="url(#p7e88ca0c9c)" style="fill: none; stroke: #d9dddf; stroke-width: 0.45; stroke-linecap: square"/>
     </g>
     <g id="line2d_40">
      <g>
       <use xlink:href="#m77a499a493" x="89.336147" y="292.438467" style="fill: #6e747b; stroke: #6e747b; stroke-width: 0.8"/>
      </g>
     </g>
     <g id="text_18">
      <text style="font-size: 8.5px; font-family: 'Times New Roman', 'Times', 'DejaVu Serif', serif; text-anchor: end; fill: #6e747b" x="82.336147" y="295.385245" transform="rotate(-0 82.336147 295.385245)">0</text>
     </g>
    </g>
    <g id="ytick_8">
     <g id="line2d_41">
      <path d="M 89.336147 270.583139 
L 202.983853 270.583139 
" clip-path="url(#p7e88ca0c9c)" style="fill: none; stroke: #d9dddf; stroke-width: 0.45; stroke-linecap: square"/>
     </g>
     <g id="line2d_42">
      <g>
       <use xlink:href="#m77a499a493" x="89.336147" y="270.583139" style="fill: #6e747b; stroke: #6e747b; stroke-width: 0.8"/>
      </g>
     </g>
     <g id="text_19">
      <text style="font-size: 8.5px; font-family: 'Times New Roman', 'Times', 'DejaVu Serif', serif; text-anchor: end; fill: #6e747b" x="82.336147" y="273.529916" transform="rotate(-0 82.336147 273.529916)">20</text>
     </g>
    </g>
    <g id="ytick_9">
     <g id="line2d_43">
      <path d="M 89.336147 248.727811 
L 202.983853 248.727811 
" clip-path="url(#p7e88ca0c9c)" style="fill: none; stroke: #d9dddf; stroke-width: 0.45; stroke-linecap: square"/>
     </g>
     <g id="line2d_44">
      <g>
       <use xlink:href="#m77a499a493" x="89.336147" y="248.727811" style="fill: #6e747b; stroke: #6e747b; stroke-width: 0.8"/>
      </g>
     </g>
     <g id="text_20">
      <text style="font-size: 8.5px; font-family: 'Times New Roman', 'Times', 'DejaVu Serif', serif; text-anchor: end; fill: #6e747b" x="82.336147" y="251.674588" transform="rotate(-0 82.336147 251.674588)">40</text>
     </g>
    </g>
    <g id="ytick_10">
     <g id="line2d_45">
      <path d="M 89.336147 226.872483 
L 202.983853 226.872483 
" clip-path="url(#p7e88ca0c9c)" style="fill: none; stroke: #d9dddf; stroke-width: 0.45; stroke-linecap: square"/>
     </g>
     <g id="line2d_46">
      <g>
       <use xlink:href="#m77a499a493" x="89.336147" y="226.872483" style="fill: #6e747b; stroke: #6e747b; stroke-width: 0.8"/>
      </g>
     </g>
     <g id="text_21">
      <text style="font-size: 8.5px; font-family: 'Times New Roman', 'Times', 'DejaVu Serif', serif; text-anchor: end; fill: #6e747b" x="82.336147" y="229.81926" transform="rotate(-0 82.336147 229.81926)">60</text>
     </g>
    </g>
    <g id="ytick_11">
     <g id="line2d_47">
      <path d="M 89.336147 205.017155 
L 202.983853 205.017155 
" clip-path="url(#p7e88ca0c9c)" style="fill: none; stroke: #d9dddf; stroke-width: 0.45; stroke-linecap: square"/>
     </g>
     <g id="line2d_48">
      <g>
       <use xlink:href="#m77a499a493" x="89.336147" y="205.017155" style="fill: #6e747b; stroke: #6e747b; stroke-width: 0.8"/>
      </g>
     </g>
     <g id="text_22">
      <text style="font-size: 8.5px; font-family: 'Times New Roman', 'Times', 'DejaVu Serif', serif; text-anchor: end; fill: #6e747b" x="82.336147" y="207.963932" transform="rotate(-0 82.336147 207.963932)">80</text>
     </g>
    </g>
    <g id="ytick_12">
     <g id="line2d_49">
      <path d="M 89.336147 183.161826 
L 202.983853 183.161826 
" clip-path="url(#p7e88ca0c9c)" style="fill: none; stroke: #d9dddf; stroke-width: 0.45; stroke-linecap: square"/>
     </g>
     <g id="line2d_50">
      <g>
       <use xlink:href="#m77a499a493" x="89.336147" y="183.161826" style="fill: #6e747b; stroke: #6e747b; stroke-width: 0.8"/>
      </g>
     </g>
     <g id="text_23">
      <text style="font-size: 8.5px; font-family: 'Times New Roman', 'Times', 'DejaVu Serif', serif; text-anchor: end; fill: #6e747b" x="82.336147" y="186.108604" transform="rotate(-0 82.336147 186.108604)">100</text>
     </g>
    </g>
   </g>
   <g id="patch_10">
    <path d="M 89.336147 294.624 
L 89.336147 180.976294 
" style="fill: none; stroke: #000000; stroke-width: 0.7; stroke-linejoin: miter; stroke-linecap: square"/>
   </g>
   <g id="patch_11">
    <path d="M 89.336147 294.624 
L 202.983853 294.624 
" style="fill: none; stroke: #000000; stroke-width: 0.7; stroke-linejoin: miter; stroke-linecap: square"/>
   </g>
   <g id="PathCollection_2">
    <defs>
     <path id="m1c9c2df57a" d="M 0 2.598076 
C 0.689018 2.598076 1.349908 2.324327 1.837117 1.837117 
C 2.324327 1.349908 2.598076 0.689018 2.598076 0 
C 2.598076 -0.689018 2.324327 -1.349908 1.837117 -1.837117 
C 1.349908 -2.324327 0.689018 -2.598076 0 -2.598076 
C -0.689018 -2.598076 -1.349908 -2.324327 -1.837117 -1.837117 
C -2.324327 -1.349908 -2.598076 -0.689018 -2.598076 0 
C -2.598076 0.689018 -2.324327 1.349908 -1.837117 1.837117 
C -1.349908 2.324327 -0.689018 2.598076 0 2.598076 
z
" style="stroke: #4777a7; stroke-opacity: 0.72; stroke-width: 0.6"/>
    </defs>
    <g clip-path="url(#p7e88ca0c9c)">
     <use xlink:href="#m1c9c2df57a" x="91.52168" y="288.067402" style="fill: #4777a7; fill-opacity: 0.72; stroke: #4777a7; stroke-opacity: 0.72; stroke-width: 0.6"/>
     <use xlink:href="#m1c9c2df57a" x="102.449344" y="261.841008" style="fill: #4777a7; fill-opacity: 0.72; stroke: #4777a7; stroke-opacity: 0.72; stroke-width: 0.6"/>
     <use xlink:href="#m1c9c2df57a" x="122.119139" y="283.696336" style="fill: #4777a7; fill-opacity: 0.72; stroke: #4777a7; stroke-opacity: 0.72; stroke-width: 0.6"/>
     <use xlink:href="#m1c9c2df57a" x="95.892745" y="259.655475" style="fill: #4777a7; fill-opacity: 0.72; stroke: #4777a7; stroke-opacity: 0.72; stroke-width: 0.6"/>
     <use xlink:href="#m1c9c2df57a" x="122.119139" y="205.017155" style="fill: #4777a7; fill-opacity: 0.72; stroke: #4777a7; stroke-opacity: 0.72; stroke-width: 0.6"/>
     <use xlink:href="#m1c9c2df57a" x="196.427255" y="183.161826" style="fill: #4777a7; fill-opacity: 0.72; stroke: #4777a7; stroke-opacity: 0.72; stroke-width: 0.6"/>
     <use xlink:href="#m1c9c2df57a" x="174.571927" y="196.275023" style="fill: #4777a7; fill-opacity: 0.72; stroke: #4777a7; stroke-opacity: 0.72; stroke-width: 0.6"/>
     <use xlink:href="#m1c9c2df57a" x="200.79832" y="196.275023" style="fill: #4777a7; fill-opacity: 0.72; stroke: #4777a7; stroke-opacity: 0.72; stroke-width: 0.6"/>
     <use xlink:href="#m1c9c2df57a" x="122.119139" y="292.438467" style="fill: #4777a7; fill-opacity: 0.72; stroke: #4777a7; stroke-opacity: 0.72; stroke-width: 0.6"/>
     <use xlink:href="#m1c9c2df57a" x="137.417869" y="274.954205" style="fill: #4777a7; fill-opacity: 0.72; stroke: #4777a7; stroke-opacity: 0.72; stroke-width: 0.6"/>
     <use xlink:href="#m1c9c2df57a" x="113.377008" y="277.139737" style="fill: #4777a7; fill-opacity: 0.72; stroke: #4777a7; stroke-opacity: 0.72; stroke-width: 0.6"/>
     <use xlink:href="#m1c9c2df57a" x="102.449344" y="235.614614" style="fill: #4777a7; fill-opacity: 0.72; stroke: #4777a7; stroke-opacity: 0.72; stroke-width: 0.6"/>
     <use xlink:href="#m1c9c2df57a" x="200.79832" y="183.161826" style="fill: #4777a7; fill-opacity: 0.72; stroke: #4777a7; stroke-opacity: 0.72; stroke-width: 0.6"/>
     <use xlink:href="#m1c9c2df57a" x="139.603402" y="183.161826" style="fill: #4777a7; fill-opacity: 0.72; stroke: #4777a7; stroke-opacity: 0.72; stroke-width: 0.6"/>
     <use xlink:href="#m1c9c2df57a" x="170.200861" y="207.202687" style="fill: #4777a7; fill-opacity: 0.72; stroke: #4777a7; stroke-opacity: 0.72; stroke-width: 0.6"/>
     <use xlink:href="#m1c9c2df57a" x="113.377008" y="200.646089" style="fill: #4777a7; fill-opacity: 0.72; stroke: #4777a7; stroke-opacity: 0.72; stroke-width: 0.6"/>
     <use xlink:href="#m1c9c2df57a" x="135.232336" y="187.532892" style="fill: #4777a7; fill-opacity: 0.72; stroke: #4777a7; stroke-opacity: 0.72; stroke-width: 0.6"/>
     <use xlink:href="#m1c9c2df57a" x="98.078278" y="259.655475" style="fill: #4777a7; fill-opacity: 0.72; stroke: #4777a7; stroke-opacity: 0.72; stroke-width: 0.6"/>
     <use xlink:href="#m1c9c2df57a" x="113.377008" y="272.768672" style="fill: #4777a7; fill-opacity: 0.72; stroke: #4777a7; stroke-opacity: 0.72; stroke-width: 0.6"/>
     <use xlink:href="#m1c9c2df57a" x="128.675737" y="189.718425" style="fill: #4777a7; fill-opacity: 0.72; stroke: #4777a7; stroke-opacity: 0.72; stroke-width: 0.6"/>
     <use xlink:href="#m1c9c2df57a" x="168.015328" y="191.903958" style="fill: #4777a7; fill-opacity: 0.72; stroke: #4777a7; stroke-opacity: 0.72; stroke-width: 0.6"/>
     <use xlink:href="#m1c9c2df57a" x="106.820409" y="272.768672" style="fill: #4777a7; fill-opacity: 0.72; stroke: #4777a7; stroke-opacity: 0.72; stroke-width: 0.6"/>
     <use xlink:href="#m1c9c2df57a" x="200.79832" y="183.161826" style="fill: #4777a7; fill-opacity: 0.72; stroke: #4777a7; stroke-opacity: 0.72; stroke-width: 0.6"/>
     <use xlink:href="#m1c9c2df57a" x="163.644263" y="222.501417" style="fill: #4777a7; fill-opacity: 0.72; stroke: #4777a7; stroke-opacity: 0.72; stroke-width: 0.6"/>
     <use xlink:href="#m1c9c2df57a" x="126.490205" y="233.429081" style="fill: #4777a7; fill-opacity: 0.72; stroke: #4777a7; stroke-opacity: 0.72; stroke-width: 0.6"/>
     <use xlink:href="#m1c9c2df57a" x="93.707212" y="270.583139" style="fill: #4777a7; fill-opacity: 0.72; stroke: #4777a7; stroke-opacity: 0.72; stroke-width: 0.6"/>
     <use xlink:href="#m1c9c2df57a" x="95.892745" y="288.067402" style="fill: #4777a7; fill-opacity: 0.72; stroke: #4777a7; stroke-opacity: 0.72; stroke-width: 0.6"/>
     <use xlink:href="#m1c9c2df57a" x="106.820409" y="270.583139" style="fill: #4777a7; fill-opacity: 0.72; stroke: #4777a7; stroke-opacity: 0.72; stroke-width: 0.6"/>
     <use xlink:href="#m1c9c2df57a" x="128.675737" y="270.583139" style="fill: #4777a7; fill-opacity: 0.72; stroke: #4777a7; stroke-opacity: 0.72; stroke-width: 0.6"/>
     <use xlink:href="#m1c9c2df57a" x="130.86127" y="222.501417" style="fill: #4777a7; fill-opacity: 0.72; stroke: #4777a7; stroke-opacity: 0.72; stroke-width: 0.6"/>
     <use xlink:href="#m1c9c2df57a" x="98.078278" y="274.954205" style="fill: #4777a7; fill-opacity: 0.72; stroke: #4777a7; stroke-opacity: 0.72; stroke-width: 0.6"/>
     <use xlink:href="#m1c9c2df57a" x="119.933606" y="281.510803" style="fill: #4777a7; fill-opacity: 0.72; stroke: #4777a7; stroke-opacity: 0.72; stroke-width: 0.6"/>
     <use xlink:href="#m1c9c2df57a" x="100.263811" y="292.438467" style="fill: #4777a7; fill-opacity: 0.72; stroke: #4777a7; stroke-opacity: 0.72; stroke-width: 0.6"/>
     <use xlink:href="#m1c9c2df57a" x="115.562541" y="220.315884" style="fill: #4777a7; fill-opacity: 0.72; stroke: #4777a7; stroke-opacity: 0.72; stroke-width: 0.6"/>
     <use xlink:href="#m1c9c2df57a" x="117.748073" y="237.800147" style="fill: #4777a7; fill-opacity: 0.72; stroke: #4777a7; stroke-opacity: 0.72; stroke-width: 0.6"/>
     <use xlink:href="#m1c9c2df57a" x="117.748073" y="246.542278" style="fill: #4777a7; fill-opacity: 0.72; stroke: #4777a7; stroke-opacity: 0.72; stroke-width: 0.6"/>
     <use xlink:href="#m1c9c2df57a" x="135.232336" y="268.397606" style="fill: #4777a7; fill-opacity: 0.72; stroke: #4777a7; stroke-opacity: 0.72; stroke-width: 0.6"/>
     <use xlink:href="#m1c9c2df57a" x="146.16" y="292.438467" style="fill: #4777a7; fill-opacity: 0.72; stroke: #4777a7; stroke-opacity: 0.72; stroke-width: 0.6"/>
     <use xlink:href="#m1c9c2df57a" x="119.933606" y="226.872483" style="fill: #4777a7; fill-opacity: 0.72; stroke: #4777a7; stroke-opacity: 0.72; stroke-width: 0.6"/>
     <use xlink:href="#m1c9c2df57a" x="109.005942" y="222.501417" style="fill: #4777a7; fill-opacity: 0.72; stroke: #4777a7; stroke-opacity: 0.72; stroke-width: 0.6"/>
    </g>
   </g>
   <g id="patch_12">
    <path d="M 151.411558 291.961203 
Q 149.781985 292.109299 148.152413 292.257396 
" style="fill: none; stroke: #6e747b; stroke-width: 0.45; stroke-linecap: round"/>
   </g>
   <g id="text_24">
    <text style="font-size: 7.6px; font-family: 'Times New Roman', 'Times', 'DejaVu Serif', serif; text-anchor: start; fill: #20252b" x="154.902131" y="292.071442" transform="rotate(-0 154.902131 292.071442)">stick push</text>
   </g>
   <g id="patch_13">
    <path d="M 131.228008 282.609642 
Q 127.352958 286.790972 123.477908 290.972302 
" style="fill: none; stroke: #6e747b; stroke-width: 0.45; stroke-linecap: round"/>
   </g>
   <g id="text_25">
    <text style="font-size: 7.6px; font-family: 'Times New Roman', 'Times', 'DejaVu Serif', serif; text-anchor: start; fill: #20252b" x="121.026373" y="277.865479" transform="rotate(-0 121.026373 277.865479)">coffee pull</text>
   </g>
   <g id="patch_14">
    <path d="M 114.764816 194.541492 
Q 110.603775 192.560337 106.442734 190.579182 
" style="fill: none; stroke: #6e747b; stroke-width: 0.45; stroke-linecap: round"/>
   </g>
   <g id="text_26">
    <text style="font-size: 7.6px; font-family: 'Times New Roman', 'Times', 'DejaVu Serif', serif; text-anchor: start; fill: #20252b" x="112.284241" y="202.464597" transform="rotate(-0 112.284241 202.464597)">door open</text>
   </g>
   <g id="patch_15">
    <path d="M 129.57269 188.88611 
Q 122.457424 190.211944 115.342158 191.537778 
" style="fill: none; stroke: #6e747b; stroke-width: 0.45; stroke-linecap: round"/>
   </g>
   <g id="text_27">
    <text style="font-size: 7.6px; font-family: 'Times New Roman', 'Times', 'DejaVu Serif', serif; text-anchor: start; fill: #20252b" x="133.046803" y="187.165867" transform="rotate(-0 133.046803 187.165867)">button top</text>
   </g>
   <g id="text_28">
    <text style="font-weight: 700; font-size: 9.5px; font-family: 'Times New Roman', 'Times', 'DejaVu Serif', serif; text-anchor: start" x="89.336147" y="174.976294" transform="rotate(-0 89.336147 174.976294)">(b)  MT50 tasks</text>
   </g>
   <g id="PathCollection_3">
    <defs>
     <path id="m2d7a5dd884" d="M 0 2.95804 
C 0.784481 2.95804 1.536938 2.646362 2.09165 2.09165 
C 2.646362 1.536938 2.95804 0.784481 2.95804 0 
C 2.95804 -0.784481 2.646362 -1.536938 2.09165 -2.09165 
C 1.536938 -2.646362 0.784481 -2.95804 0 -2.95804 
C -0.784481 -2.95804 -1.536938 -2.646362 -2.09165 -2.09165 
C -2.646362 -1.536938 -2.95804 -0.784481 -2.95804 0 
C -2.95804 0.784481 -2.646362 1.536938 -2.09165 2.09165 
C -1.536938 2.646362 -0.784481 2.95804 0 2.95804 
z
" style="stroke: #4777a7; stroke-width: 1.25"/>
    </defs>
    <g clip-path="url(#p7e88ca0c9c)">
     <use xlink:href="#m2d7a5dd884" x="113.377008" y="191.903958" style="fill: #ffffff; stroke: #4777a7; stroke-width: 1.25"/>
     <use xlink:href="#m2d7a5dd884" x="104.634876" y="189.718425" style="fill: #ffffff; stroke: #4777a7; stroke-width: 1.25"/>
     <use xlink:href="#m2d7a5dd884" x="198.612788" y="187.532892" style="fill: #ffffff; stroke: #4777a7; stroke-width: 1.25"/>
     <use xlink:href="#m2d7a5dd884" x="100.263811" y="288.067402" style="fill: #ffffff; stroke: #4777a7; stroke-width: 1.25"/>
     <use xlink:href="#m2d7a5dd884" x="119.933606" y="255.284409" style="fill: #ffffff; stroke: #4777a7; stroke-width: 1.25"/>
     <use xlink:href="#m2d7a5dd884" x="95.892745" y="281.510803" style="fill: #ffffff; stroke: #4777a7; stroke-width: 1.25"/>
     <use xlink:href="#m2d7a5dd884" x="111.191475" y="283.696336" style="fill: #ffffff; stroke: #4777a7; stroke-width: 1.25"/>
     <use xlink:href="#m2d7a5dd884" x="109.005942" y="242.171212" style="fill: #ffffff; stroke: #4777a7; stroke-width: 1.25"/>
     <use xlink:href="#m2d7a5dd884" x="124.304672" y="183.161826" style="fill: #ffffff; stroke: #4777a7; stroke-width: 1.25"/>
     <use xlink:href="#m2d7a5dd884" x="172.386394" y="185.347359" style="fill: #ffffff; stroke: #4777a7; stroke-width: 1.25"/>
    </g>
   </g>
  </g>
  <g id="text_29">
   <text style="font-size: 9px; font-family: 'Times New Roman', 'Times', 'DejaVu Serif', serif; text-anchor: middle" x="126" y="324.487617" transform="rotate(-0 126 324.487617)">Heuristic-gated recovery success (%)</text>
  </g>
  <g id="text_30">
   <text style="font-size: 9px; font-family: 'Times New Roman', 'Times', 'DejaVu Serif', serif" transform="translate(12.549375 201.142266) rotate(-90)">REIM success (%)</text>
  </g>
  <g id="legend_1">
   <g id="PathCollection_4">
    <g>
     <use xlink:href="#m1c9c2df57a" x="58.01125" y="15.722" style="fill: #4777a7; fill-opacity: 0.72; stroke: #4777a7; stroke-opacity: 0.72; stroke-width: 0.6"/>
    </g>
   </g>
   <g id="text_31">
    <text style="font-size: 8px; font-family: 'Times New Roman', 'Times', 'DejaVu Serif', serif; text-anchor: start" x="68.41125" y="17.822" transform="rotate(-0 68.41125 17.822)">MT50-specific</text>
   </g>
   <g id="PathCollection_5">
    <g>
     <use xlink:href="#m2d7a5dd884" x="131.15125" y="15.722" style="fill: #ffffff; stroke: #4777a7; stroke-width: 1.25"/>
    </g>
   </g>
   <g id="text_32">
    <text style="font-size: 8px; font-family: 'Times New Roman', 'Times', 'DejaVu Serif', serif; text-anchor: start" x="141.55125" y="17.822" transform="rotate(-0 141.55125 17.822)">Shared with MT10</text>
   </g>
  </g>
 </g>
 <defs>
  <clipPath id="pda8007db49">
   <rect x="89.336147" y="46.872" width="113.647706" height="113.647706"/>
  </clipPath>
  <clipPath id="p7e88ca0c9c">
   <rect x="89.336147" y="180.976294" width="113.647706" height="113.647706"/>
  </clipPath>
 </defs>
</svg>
